<svg id="Layer_1" data-name="Layer 1" xmlns="http://www.w3.org/2000/svg" viewBox="0 0 255.37 169.66"><defs><style>.cls-1{fill:none;}.cls-2{fill:#231f20;}</style></defs><rect class="cls-1" x="0.13" y="0.13" width="255.12" height="169.41"/><path class="cls-2" d="M144.9,80.16l.35-.5c.21-.36.46-.72.67-1.13.11-.2.24-.39.34-.6l.32-.64c.1-.21.19-.44.29-.66l.15-.33.13-.34a20.18,20.18,0,0,0,1.25-5.14c.06-.72.1-1.3.09-1.7s0-.61,0-.56,0,.29-.07.57l0,.49-.07.59,0,.33c0,.11,0,.23-.05.34s-.08.49-.13.74l-.16.78c-.06.26-.14.52-.2.79a22.51,22.51,0,0,1-1.07,3l-.28.6-.13.27-.12.24c-.17.3-.29.55-.38.7a5.69,5.69,0,0,0-.48,1l-.36.56-.38.54-.18.26-.19.25-.38.5-.41.49-.21.24-.22.24-.45.5-.5.49a20,20,0,0,1-6.1,4.1,17.17,17.17,0,0,1-7.47,1.37H128a5.46,5.46,0,0,1-.58,0c-.41,0-.83,0-1.1,0l-.71-.09-.71-.12-.36-.07-.35-.09c-.23-.06-.47-.1-.7-.18a20.92,20.92,0,0,1-2.71-1,24.86,24.86,0,0,1-2.54-1.37,26.25,26.25,0,0,1-2.37-1.7,16,16,0,0,1-2.53-2.61,25.54,25.54,0,0,1-2-3,18.32,18.32,0,0,1-2.46-8.11,19.54,19.54,0,0,1,1.33-8.47c-.12.05,0-.36.19-.86.11-.25.23-.52.35-.76s.24-.45.31-.59a19.33,19.33,0,0,1,5.7-6.66A20.65,20.65,0,0,1,128,49h.48c.16,0,.32,0,.48,0l1,.05c.33,0,.65.07,1,.11l.49.06.49.09,1,.2.94.27a3.64,3.64,0,0,1,.47.14l.45.16.45.16c.15.06.3.11.44.18l.86.38.21.1.21.11.41.22.41.22.2.11.19.12.78.49c.13.08.25.17.37.26l.37.27a7.85,7.85,0,0,1,.73.56l.7.58.66.63.33.31.32.33.63.68.58.72c.1.12.21.24.3.36l.27.38a17.91,17.91,0,0,1,3.51,9.14l.16,1.83q0,.17,0,.3a1.64,1.64,0,0,0,0,.18c0,.06.05,0,.06-.19a15.16,15.16,0,0,0,0-1.91,20.65,20.65,0,0,0-1.11-5.28,17.47,17.47,0,0,0-2.65-4.85,17.27,17.27,0,0,0-2.92-3l-1-.79a7.73,7.73,0,0,1-.9-.74,20.66,20.66,0,0,1,4.81,4.42c.09.11.16.22.24.33l.24.33c.15.23.32.44.47.67l.43.7.21.35c.07.11.13.24.19.36l.38.72c.07.12.12.24.18.37s.12.24.17.37c.22.49.41,1,.59,1.51a3.09,3.09,0,0,0-.21-.75l.15.12-.1-.26a5.41,5.41,0,0,0-.22-.57,8.55,8.55,0,0,1,.6,1.43c.18.51.27.85.19.46a16.82,16.82,0,0,0-2.52-5.44l-.56-.87.23.42-.32-.45-.36-.42a20.29,20.29,0,0,0-9.67-6.94,20.73,20.73,0,0,0-12.21-.29,22.34,22.34,0,0,0-3,1.09,21.19,21.19,0,0,0-2.76,1.52l-.66.45-.64.47c-.21.15-.41.33-.62.5l-.31.25-.29.26a21,21,0,0,0-2.22,2.3c-.35.41-.66.84-1,1.27l-.45.67-.11.16-.11.17L110,58a20.42,20.42,0,0,0-1.45,2.88,21.46,21.46,0,0,0-1.52,6.28c0,.56-.08,1.12-.08,1.68a1,1,0,0,1,0-.21,6.18,6.18,0,0,1,0-.83c0,.29,0,.59,0,.88v.88a20.89,20.89,0,0,0,1.87,8.06,21.43,21.43,0,0,1-1.11-3.46l.06.27A20.7,20.7,0,0,0,109,77.88,20.34,20.34,0,0,0,110.87,81c.13.16.26.34.39.53l.45.58c.15.21.32.41.49.62s.34.42.53.62a16.33,16.33,0,0,0,2.16,2.07A22.29,22.29,0,0,0,125,89.94a20.12,20.12,0,0,0,10.55-1.06,20.7,20.7,0,0,0,2.4-1c-.94.38-2,.78-2.87,1.07l-.28.06-.54.18a30.09,30.09,0,0,1-4.18.62,22.42,22.42,0,0,1-5.13-.18l-.67-.1-.67-.14-.34-.07-.33-.08-.67-.18a21.23,21.23,0,0,1-2.61-.92,20.21,20.21,0,0,1-4.58-2.71l-.28-.23-.28-.23-.54-.48c-.35-.33-.7-.66-1-1a21.46,21.46,0,0,1-1.83-2.21l.17.21.2.21.44.48.94,1a21.61,21.61,0,0,0,4.92,3.92,19,19,0,0,0,2.81,1.35,20.15,20.15,0,0,0,2.83.85,20.42,20.42,0,0,1-2.65-1c-.44-.17-.86-.39-1.3-.6-.22-.1-.43-.22-.65-.33l-.33-.18-.33-.18c-.21-.13-.45-.25-.69-.39l-.75-.42a10.44,10.44,0,0,1-1.32-.91,22.9,22.9,0,0,1-4.68-5,19.29,19.29,0,0,1-1.61-2.88c-.23-.5-.42-1-.62-1.56l-.25-.82c-.09-.27-.15-.55-.22-.84,0-.11-.05-.22-.07-.32s0-.2,0-.29a3.85,3.85,0,0,0-.1-.61,19.73,19.73,0,0,0,3,7.15,22.15,22.15,0,0,0,5.42,5.61l.5.37.48.33c.16.11.31.22.46.31l.47.29c.69.36,1.35.65,1.91.9A16.56,16.56,0,0,0,124,89.15l.4.07.39,0,.74.09c.48,0,.94.07,1.4.06h.68l.7,0h.35l.37,0,.76-.05a29,29,0,0,0,3.81-.56,29.25,29.25,0,0,1-5,.76c-.88,0-1.73,0-2.49,0-.38,0-.74,0-1.06-.08s-.62,0-.86-.1a21.1,21.1,0,0,0,3.47.38,20.88,20.88,0,0,0,4.24-.34,21.79,21.79,0,0,0,4.19-1.2,24,24,0,0,0,3.41-1.7,19.81,19.81,0,0,0,2.5-1.8c.28-.25.53-.47.75-.68l.59-.61c.36-.41.71-.8,1.12-1.33A24.28,24.28,0,0,0,146,79.85a18,18,0,0,0,1.41-3,21,21,0,0,0,.66-2.09c.05-.17.08-.34.12-.5l.11-.48c.07-.31.11-.6.16-.85A23.26,23.26,0,0,1,147,77.29a17.66,17.66,0,0,1-1.61,2.89,21.39,21.39,0,0,1-2.88,3.51A19.94,19.94,0,0,1,139,86.42,20.65,20.65,0,0,1,135.78,88l-.65.23c-.2.07-.38.14-.54.18l-.73.21c-.15,0-.21,0-.16,0l.49-.16.52-.17.71-.27c.27-.09.56-.22.89-.36s.69-.32,1.08-.51a21.88,21.88,0,0,0,2.66-1.62,20.4,20.4,0,0,0,3.1-2.73c.26-.29.54-.58.8-.91l.39-.48.39-.52.19-.27.19-.28c.12-.18.26-.37.38-.56.23-.4.49-.8.71-1.23s.44-.88.66-1.34l.3-.71c.1-.24.18-.49.28-.74a21.71,21.71,0,0,0,.86-3.25c-.06.22-.22,1-.53,2a20.57,20.57,0,0,1-1.45,3.46,19.06,19.06,0,0,1-2,3l-.22.28-.22.25-.36.41c-.21.22-.36.36-.39.39s.6-.65,1.46-1.81C144.69,80.48,144.79,80.32,144.9,80.16Zm-33.6,1.31a21.11,21.11,0,0,1-4-10.69,21.92,21.92,0,0,1,0-3.8,21.1,21.1,0,0,1,.69-3.71,21,21,0,0,1,5.7-9.46,21,21,0,0,1,6.07-4,20.64,20.64,0,0,1,7-1.66,20.36,20.36,0,0,1,7.08.83c.58.15,1.13.38,1.69.58l.21.08.2.09.41.18.4.18a3.73,3.73,0,0,1,.4.2l.79.42.39.21.37.24.75.47.72.53-.47-.32-.23-.16-.25-.14-1-.57-1-.52-.25-.12-.27-.11-.54-.23a20.13,20.13,0,0,0-6.28-1.53l-1.32-.1h-1.32l-.65,0-.66.05c-.43,0-.86.1-1.3.15l-.65.11c-.21,0-.43.07-.64.13-.43.1-.86.19-1.28.32a19,19,0,0,0-2.49.9A19.28,19.28,0,0,0,115,52.84c-.37.28-.71.61-1.06.92l-.5.51-.25.25-.24.27a18,18,0,0,0-1.8,2.31,17.84,17.84,0,0,1,2.78-3.21,18.54,18.54,0,0,1,3-2.22,20.22,20.22,0,0,0-5.25,4.9l-.27.38-.24.38c-.16.26-.32.5-.46.74l-.35.58-.32.6a19.41,19.41,0,0,0-1.59,3.47A21.29,21.29,0,0,0,111.3,81.47ZM116,85.16A19.71,19.71,0,0,1,112.55,82a20.5,20.5,0,0,1-2.79-4.3,19.54,19.54,0,0,1-.89-2.18l0-.1-.09-.26,0-.1-.08-.24c0-.09,0-.19-.09-.3s-.07-.27-.11-.42,0-.09,0-.14l-.06-.21c0-.07,0-.15,0-.23-.06-.26-.12-.52-.17-.79a20.46,20.46,0,0,1-.19-7v0c0,.19,0,.34,0,.44a19.78,19.78,0,0,0-.14,2.92c0,.22,0,.44,0,.66l0,.64,0,.3,0,.3.07.57a23.1,23.1,0,0,0,.49,2.44,20.92,20.92,0,0,0,1.23,3.32l.12.28c0,.09.1.17.14.26l.28.53c.19.35.4.69.6,1a20.36,20.36,0,0,0,1.37,1.93,21,21,0,0,0,3.29,3.3,21.4,21.4,0,0,0,3.87,2.42A16.62,16.62,0,0,1,116,85.16Z"/><path class="cls-2" d="M108.41,74c-.11-.42-.21-.84-.3-1.27.06.29.12.55.17.79s.07.3.11.44,0,.09,0,.14c.09.35.2.71.31,1.06l.08.23v0a.42.42,0,0,0,0,.1s-.09-.27-.23-.71C108.57,74.58,108.49,74.31,108.41,74Z"/><path class="cls-2" d="M110.44,57.06l.37-.55.39-.53.2-.26.21-.26L112,55c.15-.16.3-.32.44-.49.29-.33.6-.63.91-.94a21.26,21.26,0,0,1,4.14-3.13,20.76,20.76,0,0,1,9.75-2.8h1.27c.42,0,.84,0,1.26.08l.32,0,.31,0,.62.09.63.09.62.14A19.46,19.46,0,0,1,137,49.7l.23.12.24.13.46.26.46.27c.15.08.3.19.45.28s.59.39.88.6l.84.64.21.16.2.18.39.35.4.35a4.31,4.31,0,0,1,.37.37c.25.25.5.49.73.75l.68.79-.46-.63-.23-.31-.26-.3-.54-.61a2.91,2.91,0,0,0-.3-.31l-.33-.32a18.35,18.35,0,0,0-4.47-3,21.91,21.91,0,0,0-5.29-1.7,22.58,22.58,0,0,0-4-.35,20.14,20.14,0,0,0-4,.41A20.89,20.89,0,0,0,116.17,51a21.45,21.45,0,0,0-5.88,6,21.16,21.16,0,0,0-3.11,8,1.69,1.69,0,0,0-.05.24l0,.3-.1.7c0,.25,0,.52-.06.78l0,.38v.37a21.42,21.42,0,0,1,3.17-10.18A5.35,5.35,0,0,1,110.44,57.06Z"/><path class="cls-2" d="M113.7,84.71a23.47,23.47,0,0,0,2.53,2,24,24,0,0,0,2.71,1.57,30.48,30.48,0,0,1-2.66-1.67,24.5,24.5,0,0,1-2.54-2.07,21.81,21.81,0,0,1-5-6.88A20.84,20.84,0,0,0,113.7,84.71Z"/><path class="cls-2" d="M130,66.11h.1a.53.53,0,0,0,.38-.17.61.61,0,0,0,.22-.45.54.54,0,0,0-.17-.4.6.6,0,0,0-.37-.19.53.53,0,0,0-.44.17.74.74,0,0,0-.19.43.6.6,0,0,0,.12.41A.49.49,0,0,0,130,66.11Z"/><path class="cls-2" d="M160.31,68.61v0a.42.42,0,0,0-.37-.27.48.48,0,0,0-.57.1,9.14,9.14,0,0,1-4.14,2.38,10.4,10.4,0,0,1-4.14.07,24.7,24.7,0,0,1-3.83-1,19.22,19.22,0,0,0-4.28-1h-.29a6.65,6.65,0,0,0-2.44.35l-.15,0a1.18,1.18,0,0,1,0-.43c0-.22,0-.43,0-.62s0-.39.08-.59a2.15,2.15,0,0,0,.06-.29,2.64,2.64,0,0,0,0-.29.59.59,0,0,0-.14-.46.57.57,0,0,0-.72-.08,1.73,1.73,0,0,0-.28.19l-.25.21-.77.75c-.25.24-.51.49-.77.76l-.51.47a7.11,7.11,0,0,1-.6.49,7.39,7.39,0,0,1-.66.42A2,2,0,0,1,135,70a.76.76,0,0,1-.42,0,.63.63,0,0,1-.24-.35,3,3,0,0,1-.19-.78,5.34,5.34,0,0,1,0-.8,10.45,10.45,0,0,1,.27-1.74A9,9,0,0,1,135,64.4a6.08,6.08,0,0,1,1.08-1.54,2.79,2.79,0,0,1,1.5-.82,1.59,1.59,0,0,1,2,1.21,1.7,1.7,0,0,1,.06.31c0,.12,0,.22,0,.32a2.74,2.74,0,0,1,0,.4c0,.13,0,.27,0,.42a1.28,1.28,0,0,1,0,.19.5.5,0,0,0,0,.24.39.39,0,0,0,.33.36.51.51,0,0,0,.54-.21.62.62,0,0,0,.12-.26,6,6,0,0,0,.05-1.46,3.4,3.4,0,0,0-.48-1.39,2.65,2.65,0,0,0-1.14-1.07,2.5,2.5,0,0,0-1.55-.17,4.21,4.21,0,0,0-2,.9,6.22,6.22,0,0,0-1.36,1.65,8.83,8.83,0,0,0-.87,2,11.13,11.13,0,0,0-.41,2.07,6,6,0,0,0,0,1.12,2.56,2.56,0,0,0-.39.22l-.14.1-.12.1-.46.37a.61.61,0,0,0-.14.1.47.47,0,0,1-.12.09,4.51,4.51,0,0,1-.47.3c-.27.15-.47.16-.58,0a1.1,1.1,0,0,1-.11-.51c0-.23,0-.44,0-.64a4.64,4.64,0,0,1,0-.63l0-.56a1.7,1.7,0,0,0,0-.41.41.41,0,0,0-.39-.29.53.53,0,0,0-.48.23.64.64,0,0,0-.15.26c0,.18-.05.36-.07.54,0,0,0,0,0,0l-.23.66c-.08.22-.15.45-.22.67-.19.57-.4,1.16-.61,1.73s-.45,1.14-.71,1.72a6,6,0,0,1-.35.64s0,0,0,0,0,0,0,0l-.12-.35a6.75,6.75,0,0,1-.18-.77c0-.29-.08-.58-.12-.87s-.05-.6-.06-.89,0-.58,0-.82c0-.72-.07-1.45-.1-2.16s-.06-1.43-.1-2.14l0-.74a4.15,4.15,0,0,0-.15-.88,2.22,2.22,0,0,0-.36-.74.84.84,0,0,0-.7-.34,1.44,1.44,0,0,0-1,.38,5.87,5.87,0,0,0-.7.73c-.24.31-.49.63-.72,1s-.47.64-.7,1a1.52,1.52,0,0,1-.29.32s-.07,0-.13-.4l-.24-1.37c-.07-.45-.16-.92-.25-1.38s-.16-.83-.25-1.25a8.88,8.88,0,0,0-.38-1.24,3,3,0,0,0-.14-.39,1.08,1.08,0,0,0-.24-.36.7.7,0,0,0-.57-.29.89.89,0,0,0-.65.31,1.85,1.85,0,0,0-.37.59c-.1.25-.2.49-.29.73s-.18.49-.26.74a19.46,19.46,0,0,0-.52,2.26c-.12.74-.22,1.51-.3,2.29s-.13,1.29-.19,1.93l-.18,1.91a.7.7,0,0,1-.05.19.39.39,0,0,1,0-.13c-.19-1.57-.35-3.14-.48-4.67s-.18-3.1-.18-4.68a2.94,2.94,0,0,1,0-.42.7.7,0,0,1,.15-.37.54.54,0,0,0,.14-.51,1.37,1.37,0,0,0-.21-.44.5.5,0,0,0-.43-.22.57.57,0,0,0-.45.24h0l0,0a9,9,0,0,1-4.12,2.36,10.3,10.3,0,0,1-4.12.07,23.62,23.62,0,0,1-3.83-1,17.48,17.48,0,0,0-4.57-1,6.27,6.27,0,0,0-3.36.75l-.08.06a.59.59,0,0,0-.19.43.52.52,0,0,0,.28.47.57.57,0,0,0,.54,0,4.68,4.68,0,0,1,1.62-.57,6.18,6.18,0,0,1,1.87,0,14.73,14.73,0,0,1,1.74.35c.49.13,1.1.33,1.83.57s1.42.46,2,.62,1.27.31,2,.44a12.26,12.26,0,0,0,2.08.18h.1a11.94,11.94,0,0,0,2.09-.21,10.26,10.26,0,0,0,1.68-.54,12.24,12.24,0,0,0,1.52-.82c.23-.15.45-.31.67-.47,0,.3,0,.6,0,.89a60,60,0,0,0,.35,6c0,.17,0,.42.08.76s.09.72.14,1.14.11.87.18,1.33.15.9.22,1.3.15.77.23,1.08a2.59,2.59,0,0,0,.23.68.53.53,0,0,0,.46.25.57.57,0,0,0,.51-.29.85.85,0,0,0,.12-.37,1.92,1.92,0,0,1,.05-.32c.11-1,.21-2.1.31-3.15l.32-3.15c0-.4.09-.9.15-1.47s.15-1.17.26-1.77a16.67,16.67,0,0,1,.41-1.72,5.23,5.23,0,0,1,.5-1.18,4.35,4.35,0,0,1,.27.76l.19.9.09.44.09.45.31,1.78a4,4,0,0,0,.09.45c0,.16.06.31.08.45l.1.41a2,2,0,0,0,.17.43,1.1,1.1,0,0,0,.27.36.75.75,0,0,0,.45.14.93.93,0,0,0,.67-.29,2.2,2.2,0,0,0,.3-.31l.26-.33c.24-.31.47-.63.7-1l.72-1,.31-.38a1.11,1.11,0,0,1,.38-.28s.06,0,.07,0,0,0,.06.07a1.27,1.27,0,0,1,.12.36c0,.13,0,.26,0,.4l.27,5.31c0,.78.11,1.57.22,2.35,0,.27.08.53.13.79a3.22,3.22,0,0,0,.29.82,1.06,1.06,0,0,0,1,.67,1.1,1.1,0,0,0,.91-.52,4.66,4.66,0,0,0,.53-.94c.19-.41.37-.86.55-1.33s.29-.78.42-1.16a.79.79,0,0,0,.19.25,1.08,1.08,0,0,0,.79.31,2.46,2.46,0,0,0,1.12-.32,5.75,5.75,0,0,0,.94-.64l.6-.48a2.6,2.6,0,0,0,.1.25,1.56,1.56,0,0,0,.72.84,1.62,1.62,0,0,0,1.12.09,3.36,3.36,0,0,0,.79-.28c.24-.12.49-.26.73-.41a9.07,9.07,0,0,0,1-.78l.9-.85a2.53,2.53,0,0,1,.42-.35h0a1.5,1.5,0,0,1,0,.28c0,.16,0,.34-.05.55s0,.43,0,.55a.46.46,0,0,1-.05.23.53.53,0,0,1-.19.17l-.52.3c-.44.27-1,.62-1.6,1s-1.26.88-1.87,1.36A19.71,19.71,0,0,0,133,74.32a5.7,5.7,0,0,0-1.13,1.56,1.62,1.62,0,0,0,.4,1.92,3.29,3.29,0,0,0,1.94.92l.47,0a3.82,3.82,0,0,0,1.45-.27,5.12,5.12,0,0,0,1.61-1A5.27,5.27,0,0,0,138.83,76a7.06,7.06,0,0,0,.64-1.66,15.33,15.33,0,0,0,.25-1.61l.16-1.59a1.13,1.13,0,0,1,.18-.57,1.34,1.34,0,0,1,.43-.37l.43-.25c.19,0,.39-.1.58-.13a6.24,6.24,0,0,1,1.88,0,14.94,14.94,0,0,1,1.75.35c.49.14,1.11.33,1.84.57s1.41.46,2,.63,1.27.31,2,.43A12,12,0,0,0,153,72h.11a11,11,0,0,0,2.08-.21,8.34,8.34,0,0,0,1.67-.54,11.61,11.61,0,0,0,1.52-.81,13.64,13.64,0,0,0,1.31-1,.79.79,0,0,0,.52-.33A.63.63,0,0,0,160.31,68.61Zm-21.72,4.53a8.26,8.26,0,0,1-.43,1.83,4.73,4.73,0,0,1-1.08,1.67,4,4,0,0,1-1.74,1l-.37.07a1.87,1.87,0,0,1-.34,0,2.31,2.31,0,0,1-1.4-.47,1,1,0,0,1-.42-.51,1.08,1.08,0,0,1,.15-.64,4.73,4.73,0,0,1,1-1.23,19.65,19.65,0,0,1,1.51-1.3c.54-.42,1.09-.82,1.63-1.19s1-.65,1.35-.85l.19-.12.16-.08C138.72,72,138.65,72.57,138.59,73.14Z"/><path class="cls-2" d="M65.12,115.42l4.43-12.9h3.38v20.6h-3V107.78l.2.91-3.88,11.39H64L60.12,109l.23-1.19v15.34h-3v-20.6h3.42Z"/><path class="cls-2" d="M80.41,123.34a4.32,4.32,0,0,1-3.2-1.09,5.47,5.47,0,0,1,.16-6.73A5.15,5.15,0,0,1,81,114.35h2.71L84,117H81.1a2,2,0,0,0-1.46.5,2.12,2.12,0,0,0-.48,1.51,1.56,1.56,0,0,0,.5,1.26,2.33,2.33,0,0,0,1.51.41,3.37,3.37,0,0,0,1.86-.42,1.43,1.43,0,0,0,.62-1.26l.29,1.68a3.08,3.08,0,0,1-.61,1.51,3.11,3.11,0,0,1-1.22.89A4.49,4.49,0,0,1,80.41,123.34Zm3.24-.22v-10a2.05,2.05,0,0,0-.56-1.53,2.19,2.19,0,0,0-1.59-.54,2.64,2.64,0,0,0-1.32.33,2.45,2.45,0,0,0-.92.94l-2.62-.93A4.15,4.15,0,0,1,78.36,109a5.53,5.53,0,0,1,3.15-.85,5.31,5.31,0,0,1,3.83,1.28,4.71,4.71,0,0,1,1.36,3.62v10Z"/><path class="cls-2" d="M90.23,123.12v-20.6h3.23v20.6ZM92,121.44l-.16-4,6.17-9h3.48Zm6.57,1.68-3.82-7.79,2.22-2,5.17,9.84Z"/><path class="cls-2" d="M109,123.34a5.52,5.52,0,0,1-4.11-1.48,5.65,5.65,0,0,1-1.47-4.18V114.1a6.23,6.23,0,0,1,1.41-4.36,5.13,5.13,0,0,1,4-1.55,4.7,4.7,0,0,1,3.85,1.66,7.13,7.13,0,0,1,1.38,4.69V117h-8.28v-2.45h5.2l0-.91a2.64,2.64,0,0,0-.6-1.88,2,2,0,0,0-1.57-.68,2.13,2.13,0,0,0-1.73.74,3.12,3.12,0,0,0-.62,2.09v3.83a2.71,2.71,0,0,0,.65,1.93,2.38,2.38,0,0,0,1.83.69,2.18,2.18,0,0,0,1.35-.4,2,2,0,0,0,.76-1.12l2.82,1a4.35,4.35,0,0,1-1.67,2.58A5.44,5.44,0,0,1,109,123.34Z"/><path class="cls-2" d="M127.2,102.52v20.6h-3.27v-20.6Z"/><path class="cls-2" d="M129.6,111.34v-2.92h6.71v2.92Zm5.07,11.86a3.45,3.45,0,0,1-2.77-1,4.35,4.35,0,0,1-.86-2.89V104.14h3.25v14.79a1.31,1.31,0,0,0,.23.84.79.79,0,0,0,.67.31h1.12v3.12Z"/><path class="cls-2" d="M152.29,111.92h6.12v5a7.38,7.38,0,0,1-.75,3.43,5.38,5.38,0,0,1-2.14,2.24,6.63,6.63,0,0,1-3.3.79,7,7,0,0,1-3.33-.75,5.18,5.18,0,0,1-2.18-2.12,6.64,6.64,0,0,1-.76-3.27v-8.39a7.53,7.53,0,0,1,.75-3.47,5.34,5.34,0,0,1,2.15-2.24,6.51,6.51,0,0,1,3.29-.79,6.59,6.59,0,0,1,3.16.71,5.08,5.08,0,0,1,2.07,2.11,8.34,8.34,0,0,1,.87,3.46h-3.43a3.66,3.66,0,0,0-.84-2.28,2.41,2.41,0,0,0-1.83-.75,2.69,2.69,0,0,0-2.11.87,3.51,3.51,0,0,0-.77,2.38v8.39a2.85,2.85,0,0,0,.79,2.11,3,3,0,0,0,2.17.78,2.79,2.79,0,0,0,2.12-.83,3.31,3.31,0,0,0,.79-2.34V115h-2.84Z"/><path class="cls-2" d="M165.11,102.52v16.35a1.25,1.25,0,0,0,.27.86,1,1,0,0,0,.75.31H167v3.1h-1.53a3.4,3.4,0,0,1-2.63-1,4.12,4.12,0,0,1-.93-2.88V102.52Z"/><path class="cls-2" d="M174.32,123.34a4.8,4.8,0,0,1-5.25-5.26v-4.7a5.14,5.14,0,0,1,1.38-3.85,6.25,6.25,0,0,1,7.76,0,5.17,5.17,0,0,1,1.37,3.85v4.74a5.21,5.21,0,0,1-1.37,3.86A5.32,5.32,0,0,1,174.32,123.34Zm0-3.06a1.85,1.85,0,0,0,1.49-.61,2.48,2.48,0,0,0,.52-1.66v-4.53a2.43,2.43,0,0,0-.52-1.65,1.93,1.93,0,0,0-1.49-.58,2,2,0,0,0-1.5.58,2.34,2.34,0,0,0-.54,1.65V118a2.39,2.39,0,0,0,.54,1.66A1.87,1.87,0,0,0,174.34,120.28Z"/><path class="cls-2" d="M185.1,123.12l-3.91-14.7h3.21l2,10,2.66-10h2.24l2.66,10,2.06-10h3.2l-3.93,14.7h-2.49l-2.62-9.91-2.59,9.91Z"/></svg>