<svg id="Layer_1" data-name="Layer 1" xmlns="http://www.w3.org/2000/svg" viewBox="0 0 255.37 169.66"><defs><style>.cls-1{fill:none;}.cls-2{fill:#231f20;}</style></defs><rect class="cls-1" x="0.13" y="0.13" width="255.12" height="169.41"/><path class="cls-2" d="M67.82,96.17c.11-.17.23-.33.34-.51.22-.35.47-.72.68-1.12.11-.2.23-.39.33-.61l.32-.63c.11-.22.2-.44.3-.66s.1-.22.14-.33l.13-.34a19.43,19.43,0,0,0,1.25-5.15c.07-.71.1-1.3.1-1.69a3.7,3.7,0,0,0,0-.56l-.06.57,0,.49-.07.59,0,.33c0,.11,0,.22,0,.34s-.08.49-.13.74l-.16.77c-.06.27-.14.53-.21.8a21.18,21.18,0,0,1-1.06,3l-.28.6-.13.27-.13.24c-.16.3-.28.54-.37.69a6,6,0,0,0-.48,1l-.37.57-.37.53-.18.26-.2.25-.38.51-.4.48-.21.25-.22.24c-.15.16-.3.33-.46.49l-.5.5a20,20,0,0,1-6.09,4.1,17,17,0,0,1-7.47,1.36h-.45c-.18,0-.38,0-.58,0-.41,0-.84,0-1.1,0l-.72-.09-.71-.13-.35-.06-.35-.09c-.23-.06-.47-.11-.7-.18a20,20,0,0,1-2.71-1,23.19,23.19,0,0,1-2.55-1.37,25.59,25.59,0,0,1-2.37-1.69,16.4,16.4,0,0,1-2.52-2.61,25.13,25.13,0,0,1-2-3,18.32,18.32,0,0,1-2.46-8.11,19.39,19.39,0,0,1,1.33-8.47c-.12,0,0-.37.19-.87l.34-.75c.12-.24.24-.45.32-.59a19.18,19.18,0,0,1,13.19-10,19.83,19.83,0,0,1,3.81-.46h.48l.48,0,1,0,1,.12.49.06.49.09,1,.2.94.26c.16,0,.32.08.47.14l.45.17.45.16c.15.06.3.11.44.18l.86.38.21.1.21.11.41.22.4.22.21.11.19.12.78.49c.13.08.25.17.37.26l.37.27a8,8,0,0,1,.72.55l.7.59c.23.2.45.42.67.62l.33.32c.11.1.21.22.31.33l.63.68.59.72.3.36.27.38a18,18,0,0,1,3.51,9.14l.15,1.83c0,.11,0,.21,0,.29a1.06,1.06,0,0,0,0,.18c0,.07,0,0,.06-.18a15.19,15.19,0,0,0,0-1.91,20.56,20.56,0,0,0-1.11-5.28,17.33,17.33,0,0,0-2.65-4.85,16.94,16.94,0,0,0-2.92-3l-1-.8a5.62,5.62,0,0,1-.9-.74,21.08,21.08,0,0,1,4.8,4.43,4.08,4.08,0,0,1,.25.33l.24.33c.15.23.32.44.47.67l.42.7.22.34.19.36.38.73.18.36c0,.13.11.25.17.37.22.5.41,1,.59,1.52a3.15,3.15,0,0,0-.21-.76l.14.13-.09-.26c-.06-.16-.13-.37-.22-.57a10.65,10.65,0,0,1,.6,1.43c.17.5.27.85.19.45a17,17,0,0,0-2.52-5.43l-.56-.88.23.42c-.11-.14-.21-.3-.33-.44l-.35-.42a20.16,20.16,0,0,0-4.28-4.17,20.4,20.4,0,0,0-5.39-2.78,20.84,20.84,0,0,0-12.22-.28,20.53,20.53,0,0,0-5.72,2.61l-.65.44-.64.48c-.22.15-.42.33-.62.49l-.31.26-.3.26a20,20,0,0,0-2.21,2.3c-.35.4-.66.84-1,1.27l-.45.66-.11.17-.11.17L33,74a20.25,20.25,0,0,0-1.44,2.87A21.28,21.28,0,0,0,30,83.17c0,.55-.08,1.11-.08,1.67a1.43,1.43,0,0,1-.05-.2c0-.21,0-.5,0-.83,0,.29,0,.58,0,.88v.88a20.84,20.84,0,0,0,1.87,8.05,22.39,22.39,0,0,1-1.12-3.45,2.68,2.68,0,0,1,.07.27,19.86,19.86,0,0,0,1.29,3.45A20.83,20.83,0,0,0,33.79,97c.13.16.25.34.39.53l.45.58c.15.21.32.41.49.62s.34.42.53.61a15.83,15.83,0,0,0,2.16,2.08A22.2,22.2,0,0,0,47.93,106a20.13,20.13,0,0,0,10.55-1.06,23.54,23.54,0,0,0,2.4-1c-1,.38-2,.78-2.88,1.06a1.11,1.11,0,0,1-.27.06l-.54.19a30,30,0,0,1-4.19.62,22.93,22.93,0,0,1-5.12-.18l-.67-.1-.67-.14-.34-.07-.34-.09-.67-.17a22.47,22.47,0,0,1-2.61-.92A20,20,0,0,1,38,101.47l-.29-.22-.27-.24c-.18-.16-.37-.31-.54-.47-.35-.34-.7-.66-1-1a20.24,20.24,0,0,1-1.83-2.21l.17.2.2.22.44.48.94,1a21.39,21.39,0,0,0,4.92,3.92,20,20,0,0,0,2.81,1.34,18.22,18.22,0,0,0,2.83.85,20.51,20.51,0,0,1-2.66-1c-.43-.18-.85-.39-1.29-.6-.22-.1-.43-.22-.65-.34l-.33-.17L41.1,103l-.7-.38-.74-.42a10.59,10.59,0,0,1-1.33-.91,25.2,25.2,0,0,1-2.6-2.41,22,22,0,0,1-2.07-2.62,18.7,18.7,0,0,1-1.61-2.87c-.23-.51-.43-1-.62-1.56l-.25-.82c-.09-.27-.15-.56-.22-.84,0-.12-.05-.22-.07-.32l0-.3a4.86,4.86,0,0,0-.09-.6,20,20,0,0,0,3,7.15,22,22,0,0,0,5.43,5.6l.5.38.48.33.46.31.47.28c.69.36,1.34.66,1.91.91a16,16,0,0,0,3.87,1.2l.41.08.39,0,.74.08c.48,0,.94.07,1.39.07h.69l.69,0h.36l.37,0,.76,0a33.13,33.13,0,0,0,3.81-.56,29.3,29.3,0,0,1-5,.75c-.88,0-1.74,0-2.5,0-.38,0-.73,0-1.05-.08s-.62-.06-.87-.1a21.33,21.33,0,0,0,3.47.37,20.3,20.3,0,0,0,4.25-.33,21.69,21.69,0,0,0,4.18-1.2,24,24,0,0,0,3.41-1.7,20.33,20.33,0,0,0,2.51-1.8l.75-.69.59-.61c.36-.4.71-.79,1.12-1.33a23.87,23.87,0,0,0,1.53-2.2,18.23,18.23,0,0,0,1.4-3,21,21,0,0,0,.66-2.09c0-.17.09-.34.13-.51l.1-.47c.08-.31.12-.6.17-.86a22.62,22.62,0,0,1-1.4,4.34,16.46,16.46,0,0,1-1.6,2.88,20.63,20.63,0,0,1-2.89,3.52,20,20,0,0,1-3.52,2.73A19.33,19.33,0,0,1,58.69,104l-.64.24-.54.18-.73.21c-.15,0-.22,0-.16,0l.49-.17.52-.17.7-.26c.27-.09.57-.23.9-.37s.68-.32,1.08-.51A21.67,21.67,0,0,0,63,101.61a20.4,20.4,0,0,0,3.1-2.73c.26-.29.54-.58.79-.91l.4-.49.39-.51.19-.27.19-.28c.12-.19.25-.37.37-.57.24-.39.49-.79.72-1.22s.44-.88.66-1.34l.3-.71c.1-.24.18-.5.28-.75a21.57,21.57,0,0,0,.86-3.24c-.06.22-.22,1-.53,2a20.49,20.49,0,0,1-1.45,3.45,18.84,18.84,0,0,1-2,3c-.08.1-.15.2-.23.29l-.21.24-.36.42-.39.39c-.08,0,.6-.65,1.45-1.81C67.61,96.48,67.71,96.32,67.82,96.17ZM34.21,97.48a21.38,21.38,0,0,1-4-10.7,21.79,21.79,0,0,1,0-3.79,21.08,21.08,0,0,1,.68-3.71,22.37,22.37,0,0,1,1.34-3.5,20.81,20.81,0,0,1,10.44-10,20.66,20.66,0,0,1,7-1.67,20.42,20.42,0,0,1,7.09.84,16.84,16.84,0,0,1,1.69.58l.21.07.2.09.4.19.41.18.4.19.78.43c.13.07.27.13.39.21l.38.24.75.47.72.52-.47-.31-.23-.16-.25-.14-1-.58-1-.51-.26-.13-.26-.11L59.09,66a20.21,20.21,0,0,0-6.28-1.54l-1.32-.1H50.17l-.66,0-.65,0c-.44,0-.87.09-1.3.15-.22,0-.43.07-.65.11s-.43.07-.64.13c-.43.1-.86.19-1.28.32a19.15,19.15,0,0,0-2.5.9,19.76,19.76,0,0,0-4.63,2.84c-.36.29-.7.62-1,.93l-.51.5-.25.26-.24.27A18.58,18.58,0,0,0,34,73.1a17.71,17.71,0,0,1,2.78-3.2,17.91,17.91,0,0,1,3-2.22,20.68,20.68,0,0,0-5.25,4.89L34.3,73l-.24.38c-.16.25-.32.5-.46.74l-.36.58-.32.6a19.37,19.37,0,0,0-1.58,3.47A21.33,21.33,0,0,0,34.21,97.48Zm4.67,3.69a20.27,20.27,0,0,1-6.21-7.47c-.33-.71-.63-1.44-.89-2.18,0,0,0,0,0-.1l-.09-.26,0-.1-.08-.24q0-.13-.09-.3t-.12-.42l0-.14-.06-.21c0-.07,0-.15-.05-.23L31,88.73a20.72,20.72,0,0,1-.18-7v0c0,.19,0,.34,0,.43a19.9,19.9,0,0,0-.14,2.92c0,.23,0,.45,0,.67l0,.63,0,.31,0,.3.07.57A21.24,21.24,0,0,0,31.33,90a20.33,20.33,0,0,0,1.23,3.32l.12.27.14.27.28.53c.19.35.4.69.6,1a20.36,20.36,0,0,0,1.37,1.93,20.08,20.08,0,0,0,3.29,3.29,21.17,21.17,0,0,0,3.86,2.43A17.42,17.42,0,0,1,38.88,101.17Z"/><path class="cls-2" d="M31.33,90c-.12-.42-.22-.84-.31-1.27.07.29.12.55.18.79s.07.29.11.44l0,.14c.1.35.21.71.32,1.06l.08.23v0l0,.1s-.08-.27-.23-.71C31.49,90.59,31.41,90.31,31.33,90Z"/><path class="cls-2" d="M33.35,73.07l.37-.55.4-.53.19-.27.21-.25.42-.51c.14-.17.29-.33.44-.49.28-.33.6-.63.91-.94a20.86,20.86,0,0,1,8.86-5.15,20.92,20.92,0,0,1,5-.78h1.27c.43,0,.85.06,1.27.09l.31,0c.11,0,.21,0,.32,0l.62.09.63.09.61.14a19.17,19.17,0,0,1,4.74,1.65l.24.12.23.13.46.26.47.26.44.29c.3.2.6.39.88.59l.85.65.21.16.19.17.4.35.4.35c.13.12.25.25.37.37l.73.75.68.8L66,70.33c-.08-.1-.15-.21-.24-.31l-.25-.3L65,69.11c-.09-.11-.2-.21-.3-.31l-.34-.32a17.7,17.7,0,0,0-4.47-3,21.7,21.7,0,0,0-5.28-1.7,22.67,22.67,0,0,0-4-.36,20.8,20.8,0,0,0-11.57,3.61,21.27,21.27,0,0,0-9,14c0,.07,0,.15,0,.24l-.05.3-.09.7c0,.25-.05.52-.06.78l0,.38v.37A21.39,21.39,0,0,1,33,73.62C33.11,73.43,33.23,73.25,33.35,73.07Z"/><path class="cls-2" d="M36.62,100.72a23.76,23.76,0,0,0,2.53,2,25.66,25.66,0,0,0,2.71,1.57,30.55,30.55,0,0,1-2.67-1.67,23.19,23.19,0,0,1-2.53-2.08,21.55,21.55,0,0,1-5-6.88A20.65,20.65,0,0,0,36.62,100.72Z"/><path class="cls-2" d="M52.92,82.12H53A.57.57,0,0,0,53.4,82a.62.62,0,0,0,.21-.46.55.55,0,0,0-.16-.4.68.68,0,0,0-.37-.18.5.5,0,0,0-.44.17.68.68,0,0,0-.19.42.49.49,0,0,0,.12.41A.47.47,0,0,0,52.92,82.12Z"/><path class="cls-2" d="M83.23,84.62v0a.41.41,0,0,0-.36-.28.49.49,0,0,0-.57.11,9,9,0,0,1-4.14,2.37,10.43,10.43,0,0,1-4.15.08,23.79,23.79,0,0,1-3.83-1,18.39,18.39,0,0,0-4.27-1l-.29,0a7.1,7.1,0,0,0-2.44.35l-.16.06a1.76,1.76,0,0,1,0-.43c0-.22,0-.43,0-.63a4.17,4.17,0,0,1,.08-.59l.06-.29a2.64,2.64,0,0,0,0-.29.59.59,0,0,0-.15-.45.57.57,0,0,0-.72-.09,2.34,2.34,0,0,0-.27.2l-.25.21-.77.75c-.26.24-.51.49-.78.75s-.31.31-.5.48a7.26,7.26,0,0,1-.61.49,6.42,6.42,0,0,1-.65.41,1.86,1.86,0,0,1-.62.22.74.74,0,0,1-.42,0,.67.67,0,0,1-.24-.35,2.62,2.62,0,0,1-.19-.78,3.57,3.57,0,0,1,0-.8,10.3,10.3,0,0,1,.27-1.74A8.71,8.71,0,0,1,58,80.4,6,6,0,0,1,59,78.87a2.84,2.84,0,0,1,1.5-.83,1.61,1.61,0,0,1,2,1.22,1.7,1.7,0,0,1,.06.31,3.11,3.11,0,0,0,0,.32c0,.14,0,.27,0,.4s0,.27,0,.41,0,.13,0,.2a.45.45,0,0,0,0,.23.4.4,0,0,0,.32.37.56.56,0,0,0,.66-.47,5.54,5.54,0,0,0,0-1.46,3.32,3.32,0,0,0-.47-1.4,2.83,2.83,0,0,0-1.14-1.07,2.51,2.51,0,0,0-1.55-.16,4,4,0,0,0-2,.9,6.4,6.4,0,0,0-1.37,1.64,9.34,9.34,0,0,0-.86,2A12.07,12.07,0,0,0,56,83.6a7,7,0,0,0,0,1.12,1.39,1.39,0,0,0-.39.22l-.14.1-.12.1-.47.36-.13.11-.12.09-.47.3c-.27.15-.47.16-.58,0a1.13,1.13,0,0,1-.11-.51c0-.23,0-.44,0-.64a4.64,4.64,0,0,1,0-.63l0-.56a1.86,1.86,0,0,0-.05-.42A.42.42,0,0,0,53,83a.5.5,0,0,0-.48.22.64.64,0,0,0-.15.27c0,.18,0,.36-.07.54,0,0,0,0,0,0l-.23.66c-.08.22-.16.45-.22.67-.19.57-.4,1.15-.61,1.73s-.46,1.14-.71,1.71a4.54,4.54,0,0,1-.35.64s0,0,0,0,0,0,0,0L50,89.08a3.86,3.86,0,0,1-.18-.76c0-.29-.09-.58-.12-.88s0-.59-.07-.89,0-.57,0-.82c0-.72-.07-1.44-.09-2.15s-.06-1.44-.1-2.14l-.05-.74a4.15,4.15,0,0,0-.15-.88,2,2,0,0,0-.37-.75.85.85,0,0,0-.7-.34,1.43,1.43,0,0,0-1,.39,5.7,5.7,0,0,0-.69.72c-.25.32-.49.63-.72,1l-.71,1c-.21.3-.29.31-.29.31s-.07,0-.12-.39l-.24-1.37c-.07-.46-.16-.92-.25-1.38s-.16-.83-.26-1.25a7.68,7.68,0,0,0-.37-1.24,3,3,0,0,0-.14-.39,1.11,1.11,0,0,0-.25-.36.67.67,0,0,0-.56-.29.83.83,0,0,0-.65.31,1.93,1.93,0,0,0-.37.58c-.11.25-.2.5-.3.74s-.17.48-.25.74A17.85,17.85,0,0,0,40.46,80c-.12.75-.23,1.52-.3,2.29S40,83.61,40,84.25l-.18,1.9a.45.45,0,0,1-.06.2.5.5,0,0,1,0-.14c-.2-1.56-.36-3.13-.48-4.67S39,78.44,39,76.87a1.48,1.48,0,0,1,0-.42.67.67,0,0,1,.15-.37.58.58,0,0,0,.14-.52,1.72,1.72,0,0,0-.21-.43.48.48,0,0,0-.43-.22.57.57,0,0,0-.45.24h0a9,9,0,0,1-4.12,2.37A10.35,10.35,0,0,1,30,77.6a24.62,24.62,0,0,1-3.82-1,17.05,17.05,0,0,0-4.58-1,6.24,6.24,0,0,0-3.35.75l-.09.06a.62.62,0,0,0-.19.43.53.53,0,0,0,.29.47.55.55,0,0,0,.53,0,4.8,4.8,0,0,1,1.63-.57,5.87,5.87,0,0,1,1.87,0,15.17,15.17,0,0,1,1.74.35c.48.13,1.1.32,1.83.57s1.41.46,2,.62,1.28.31,2,.44a12.15,12.15,0,0,0,2.07.18H32a11.14,11.14,0,0,0,2.09-.22,8.34,8.34,0,0,0,1.67-.54,9.72,9.72,0,0,0,1.53-.82c.23-.14.45-.3.67-.46,0,.3,0,.59,0,.89a56.81,56.81,0,0,0,.35,6c0,.18,0,.43.08.77s.08.72.14,1.14.11.87.18,1.33.15.9.22,1.3.14.77.22,1.08a3.23,3.23,0,0,0,.23.68.55.55,0,0,0,.47.25.58.58,0,0,0,.51-.3.81.81,0,0,0,.12-.36,1.77,1.77,0,0,1,0-.32c.1-1,.21-2.11.31-3.15L41.16,83c0-.41.09-.9.16-1.48s.15-1.16.26-1.77A17.11,17.11,0,0,1,42,78a5.24,5.24,0,0,1,.49-1.18,3.16,3.16,0,0,1,.27.76l.2.89a3.58,3.58,0,0,0,.09.45c0,.15.06.3.08.45l.31,1.78q0,.21.09.45c0,.15.06.3.09.45l.1.4a2.52,2.52,0,0,0,.16.44,1.08,1.08,0,0,0,.28.35.68.68,0,0,0,.45.15,1,1,0,0,0,.67-.29c.1-.1.2-.2.29-.31l.27-.33.7-1,.72-1,.31-.38a1.19,1.19,0,0,1,.37-.29.09.09,0,0,1,.08,0s0,0,.06.06a1.45,1.45,0,0,1,.12.37c0,.13,0,.26,0,.4L48.51,86c0,.78.11,1.57.21,2.35,0,.26.09.53.14.79a3.18,3.18,0,0,0,.28.82,1.07,1.07,0,0,0,1,.67,1.13,1.13,0,0,0,.92-.52,4.66,4.66,0,0,0,.53-.94c.19-.42.37-.86.55-1.33s.28-.78.41-1.16a1.64,1.64,0,0,0,.19.25,1.16,1.16,0,0,0,.8.31,2.36,2.36,0,0,0,1.12-.33,5.14,5.14,0,0,0,.94-.63l.6-.49.09.26a1.55,1.55,0,0,0,.73.83,1.61,1.61,0,0,0,1.12.1,4.11,4.11,0,0,0,.79-.28,5.86,5.86,0,0,0,.72-.42,7.2,7.2,0,0,0,1-.78l.9-.85a2.33,2.33,0,0,1,.42-.34h0a.71.71,0,0,1,0,.27c0,.17,0,.35-.05.56s0,.43,0,.55a.37.37,0,0,1-.06.23.45.45,0,0,1-.19.16l-.51.31c-.44.27-1,.62-1.6,1s-1.26.87-1.87,1.36a17,17,0,0,0-1.72,1.53,5.56,5.56,0,0,0-1.13,1.56,1.63,1.63,0,0,0,.39,1.92,3.32,3.32,0,0,0,2,.92,3.77,3.77,0,0,0,.47,0A4,4,0,0,0,59,94.49a5.12,5.12,0,0,0,1.61-1,5.48,5.48,0,0,0,1.11-1.41,6.7,6.7,0,0,0,.63-1.67,12.69,12.69,0,0,0,.26-1.6l.16-1.59a1.24,1.24,0,0,1,.17-.57,1.37,1.37,0,0,1,.44-.37l.43-.25a5.43,5.43,0,0,1,.58-.13,6.24,6.24,0,0,1,1.88,0,15.38,15.38,0,0,1,1.75.35c.48.14,1.1.33,1.83.57s1.42.46,2,.62,1.28.31,2,.44A12,12,0,0,0,76,88h.1a11.84,11.84,0,0,0,2.09-.21,8.47,8.47,0,0,0,1.66-.54,10.5,10.5,0,0,0,1.52-.82,12.07,12.07,0,0,0,1.31-1,.83.83,0,0,0,.53-.33A.68.68,0,0,0,83.23,84.62ZM61.51,89.15A7.56,7.56,0,0,1,61.07,91,4.63,4.63,0,0,1,60,92.65a4,4,0,0,1-1.74,1l-.36.07-.34,0a2.37,2.37,0,0,1-1.41-.47,1,1,0,0,1-.41-.51,1.1,1.1,0,0,1,.15-.64,4.69,4.69,0,0,1,1-1.22c.47-.44,1-.88,1.52-1.3s1.09-.83,1.62-1.19,1-.65,1.36-.85l.19-.12.15-.08C61.63,88,61.57,88.58,61.51,89.15Z"/><path class="cls-2" d="M102.62,85.6l4.43-12.89h3.38v20.6h-3V78l.2.9-3.88,11.4H101.5L97.62,79.16,97.84,78V93.31h-3V72.71h3.42Z"/><path class="cls-2" d="M117.91,93.52a4.35,4.35,0,0,1-3.2-1.08,4.47,4.47,0,0,1-1.08-3.28,4.52,4.52,0,0,1,1.24-3.46,5.2,5.2,0,0,1,3.67-1.16h2.71l.2,2.61H118.6a2,2,0,0,0-1.46.5,2.12,2.12,0,0,0-.48,1.51,1.53,1.53,0,0,0,.5,1.25,2.32,2.32,0,0,0,1.51.42,3.37,3.37,0,0,0,1.86-.42,1.45,1.45,0,0,0,.62-1.26l.28,1.68a2.83,2.83,0,0,1-.61,1.5,2.94,2.94,0,0,1-1.21.9A4.69,4.69,0,0,1,117.91,93.52Zm3.24-.21v-10a2,2,0,0,0-.56-1.52,2.19,2.19,0,0,0-1.59-.55,2.65,2.65,0,0,0-1.32.34,2.31,2.31,0,0,0-.92.94l-2.62-.94a4.18,4.18,0,0,1,1.72-2.38,5.56,5.56,0,0,1,3.15-.85,5.33,5.33,0,0,1,3.83,1.29,4.71,4.71,0,0,1,1.36,3.62v10Z"/><path class="cls-2" d="M127.72,93.31V72.71H131v20.6Zm1.82-1.68-.16-4,6.16-9H139Zm6.57,1.68-3.82-7.79,2.22-2.06,5.17,9.85Z"/><path class="cls-2" d="M146.45,93.52a5.56,5.56,0,0,1-4.11-1.47,5.65,5.65,0,0,1-1.47-4.18V84.29a6.26,6.26,0,0,1,1.41-4.37,5.13,5.13,0,0,1,4-1.54A4.7,4.7,0,0,1,150.12,80a7.11,7.11,0,0,1,1.38,4.69v2.49h-8.28V84.77h5.2l0-.91a2.64,2.64,0,0,0-.6-1.88,2,2,0,0,0-1.57-.68,2.14,2.14,0,0,0-1.74.73,3.19,3.19,0,0,0-.61,2.1V88a2.67,2.67,0,0,0,.65,1.93,2.38,2.38,0,0,0,1.83.69,2.25,2.25,0,0,0,1.35-.4,2.05,2.05,0,0,0,.76-1.12l2.82,1a4.35,4.35,0,0,1-1.67,2.58A5.44,5.44,0,0,1,146.45,93.52Z"/><path class="cls-2" d="M164.7,72.71v20.6h-3.27V72.71Z"/><path class="cls-2" d="M167.1,81.52V78.6h6.71v2.92Zm5.07,11.86a3.44,3.44,0,0,1-2.77-1,4.35,4.35,0,0,1-.86-2.89V74.33h3.25V89.12A1.31,1.31,0,0,0,172,90a.8.8,0,0,0,.67.31h1.12v3.11Z"/><path class="cls-2" d="M189.79,82.1h6.12v5a7.28,7.28,0,0,1-.76,3.44A5.32,5.32,0,0,1,193,92.74a6.56,6.56,0,0,1-3.29.78,7,7,0,0,1-3.34-.74,5.18,5.18,0,0,1-2.17-2.13,6.6,6.6,0,0,1-.76-3.26V79a7.5,7.5,0,0,1,.75-3.47,5.34,5.34,0,0,1,2.15-2.24,7.31,7.31,0,0,1,6.45-.08,4.94,4.94,0,0,1,2.06,2.11,8.29,8.29,0,0,1,.88,3.45h-3.43a3.63,3.63,0,0,0-.84-2.27,2.44,2.44,0,0,0-1.83-.76,2.69,2.69,0,0,0-2.11.88,3.51,3.51,0,0,0-.77,2.38v8.39a2.81,2.81,0,0,0,.79,2.11,3,3,0,0,0,2.17.78,2.76,2.76,0,0,0,2.12-.84,3.27,3.27,0,0,0,.79-2.33V85.19h-2.84Z"/><path class="cls-2" d="M202.61,72.71V89.06a1.25,1.25,0,0,0,.27.86,1,1,0,0,0,.75.3h.83v3.11h-1.54a3.43,3.43,0,0,1-2.62-1,4.12,4.12,0,0,1-.93-2.88V72.71Z"/><path class="cls-2" d="M211.82,93.52a4.78,4.78,0,0,1-5.25-5.25V83.56A5.13,5.13,0,0,1,208,79.72a6.2,6.2,0,0,1,7.75,0,5.13,5.13,0,0,1,1.38,3.84v4.75a5.15,5.15,0,0,1-1.38,3.85A5.26,5.26,0,0,1,211.82,93.52Zm0-3.06a1.86,1.86,0,0,0,1.48-.6,2.45,2.45,0,0,0,.53-1.66V83.66a2.36,2.36,0,0,0-.53-1.64,1.88,1.88,0,0,0-1.48-.58,1.94,1.94,0,0,0-1.51.58,2.36,2.36,0,0,0-.53,1.64V88.2a2.45,2.45,0,0,0,.53,1.66A1.92,1.92,0,0,0,211.84,90.46Z"/><path class="cls-2" d="M222.6,93.31,218.69,78.6h3.21l2,10.05L226.6,78.6h2.24l2.66,10.05,2.06-10.05h3.2l-3.93,14.71h-2.49l-2.62-9.92-2.59,9.92Z"/></svg>